<svg width="13" height="11" viewBox="0 0 13 11" fill="none" xmlns="http://www.w3.org/2000/svg">
<path d="M12.0714 4.58736H2.78571L5.84071 1.56936C5.92775 1.48408 5.99683 1.38262 6.04397 1.27084C6.09111 1.15905 6.11538 1.03915 6.11538 0.918054C6.11538 0.796956 6.09111 0.677056 6.04397 0.565272C5.99683 0.453487 5.92775 0.352029 5.84071 0.266752C5.66673 0.0958988 5.43139 0 5.18607 0C4.94076 0 4.70541 0.0958988 4.53143 0.266752L0.547857 4.21126C0.199097 4.55374 0.0020733 5.0189 0 5.50469C0.00451897 5.9873 0.201356 6.44872 0.547857 6.78895L4.53143 10.7335C4.61801 10.8184 4.72067 10.8856 4.83356 10.9314C4.94644 10.9771 5.06734 11.0004 5.18935 11C5.31136 10.9996 5.43209 10.9754 5.54465 10.9289C5.65721 10.8824 5.75939 10.8144 5.84536 10.7289C5.93133 10.6433 5.9994 10.5419 6.04569 10.4304C6.09199 10.3189 6.11559 10.1994 6.11516 10.0789C6.11473 9.95838 6.09027 9.83911 6.04318 9.72792C5.99609 9.61672 5.92729 9.51578 5.84071 9.43085L2.78571 6.42202H12.0714C12.3177 6.42202 12.5539 6.32537 12.728 6.15334C12.9022 5.98131 13 5.74798 13 5.50469C13 5.2614 12.9022 5.02808 12.728 4.85604C12.5539 4.68401 12.3177 4.58736 12.0714 4.58736Z" fill="#575757"/>
</svg>
