<svg width="20" height="21" viewBox="0 0 20 21" fill="none" xmlns="http://www.w3.org/2000/svg">
<path d="M10.7804 16.0558L19.6805 7.15555C19.8865 6.9497 20 6.6749 20 6.3819C20 6.08889 19.8865 5.8141 19.6805 5.60824L19.0252 4.9528C18.5982 4.5263 17.9042 4.5263 17.4779 4.9528L10.0041 12.4266L2.52209 4.94451C2.31608 4.73866 2.04145 4.625 1.7486 4.625C1.45544 4.625 1.1808 4.73866 0.974627 4.94451L0.31951 5.59995C0.113496 5.80597 1.35709e-06 6.0806 1.35709e-06 6.3736C1.35709e-06 6.66661 0.113496 6.9414 0.31951 7.14726L9.22773 16.0558C9.4344 16.2621 9.71033 16.3755 10.0037 16.3748C10.2981 16.3755 10.5739 16.2621 10.7804 16.0558Z" fill="black"/>
</svg>
