<svg width="18" height="22" viewBox="0 0 18 22" fill="none" xmlns="http://www.w3.org/2000/svg">
<path d="M11.3179 22H3.34107C1.49876 22 0 20.458 0 18.5625V6.91797C0 5.02249 1.49876 3.48047 3.34107 3.48047H11.3179C13.1602 3.48047 14.6589 5.02249 14.6589 6.91797V18.5625C14.6589 20.458 13.1602 22 11.3179 22ZM3.34107 5.19922C2.41998 5.19922 1.67053 5.97029 1.67053 6.91797V18.5625C1.67053 19.5102 2.41998 20.2812 3.34107 20.2812H11.3179C12.239 20.2812 12.9884 19.5102 12.9884 18.5625V6.91797C12.9884 5.97029 12.239 5.19922 11.3179 5.19922H3.34107ZM18 16.4141V3.4375C18 1.54202 16.5012 0 14.6589 0H5.38747C4.92611 0 4.5522 0.384699 4.5522 0.859375C4.5522 1.33405 4.92611 1.71875 5.38747 1.71875H14.6589C15.58 1.71875 16.3295 2.48982 16.3295 3.4375V16.4141C16.3295 16.8887 16.7034 17.2734 17.1647 17.2734C17.6261 17.2734 18 16.8887 18 16.4141Z" fill="black"/>
</svg>
