<svg width="16" height="17" viewBox="0 0 16 17" fill="none" xmlns="http://www.w3.org/2000/svg">
<path d="M5.89981 12.3C7.07138 13.4716 8.97088 13.4716 10.1425 12.3001L10.1425 12.3L12.2839 10.1587C12.6811 9.77499 12.6921 9.14192 12.3084 8.74467C11.9247 8.34742 11.2917 8.33642 10.8944 8.72011C10.8861 8.72814 10.8779 8.73636 10.8699 8.74467L9.01451 10.5993L8.99916 1.5C8.99916 0.94772 8.55144 0.5 7.99916 0.5C7.44688 0.5 6.99916 0.94772 6.99916 1.5L7.01316 10.5847L5.1725 8.74402C4.77525 8.36033 4.14218 8.37133 3.75849 8.76858C3.38421 9.15611 3.38421 9.77049 3.75849 10.158L5.89981 12.3Z" fill="#F37F0D"/>
<path d="M15 10.1665C14.4477 10.1665 14 10.6142 14 11.1665V14.2272C13.9999 14.2994 13.9711 14.3687 13.92 14.4198C13.8689 14.4709 13.7996 14.4997 13.7274 14.4998H2.27266C2.2004 14.4997 2.13115 14.4709 2.08005 14.4198C2.02896 14.3687 2.00018 14.2994 2 14.2272V11.1665C2 10.6142 1.55228 10.1665 1 10.1665C0.44772 10.1665 0 10.6142 0 11.1665V14.2272C0.00146875 15.4817 1.01813 16.4984 2.27266 16.4999H13.7273C14.9819 16.4984 15.9985 15.4817 16 14.2272V11.1665C16 10.6142 15.5523 10.1665 15 10.1665Z" fill="#F37F0D"/>
</svg>
