<svg width="20" height="20" viewBox="0 0 20 20" fill="none" xmlns="http://www.w3.org/2000/svg">
<path d="M16.3952 16.3963L3.60379 3.60524L3.60106 3.60212C3.53181 3.53343 3.4497 3.47906 3.35944 3.4421C3.26917 3.40514 3.17251 3.38633 3.07497 3.38672C2.97744 3.38712 2.88093 3.40673 2.79097 3.44443C2.70101 3.48212 2.61936 3.53716 2.55067 3.60642C2.48198 3.67567 2.42761 3.75777 2.39065 3.84804C2.35369 3.9383 2.33488 4.03496 2.33527 4.1325C2.33608 4.32949 2.41511 4.51809 2.55497 4.65681L3.67489 5.77673C2.31673 6.70691 1.14769 7.88668 0.229965 9.25329C0.0801019 9.47456 0 9.73566 0 10.0029C0 10.2701 0.0801019 10.5312 0.229965 10.7525C2.57254 14.2197 6.28622 16.2509 9.99989 16.2256C11.2028 16.2299 12.3977 16.0297 13.5335 15.6334L15.3464 17.4463C15.4861 17.5814 15.6732 17.6564 15.8675 17.6551C16.0619 17.6538 16.248 17.5762 16.3858 17.4392C16.5237 17.3021 16.6022 17.1165 16.6046 16.9221C16.607 16.7278 16.5331 16.5402 16.3987 16.3998L16.3952 16.3963ZM9.99989 14.2095C9.29629 14.2093 8.60398 14.0327 7.98622 13.6959C7.36846 13.3591 6.84496 12.8729 6.46355 12.2816C6.08214 11.6904 5.85499 11.013 5.80286 10.3113C5.75073 9.60967 5.87528 8.90613 6.16512 8.26501L7.33504 9.43493C7.24081 9.87899 7.25902 10.3396 7.38802 10.7748C7.51702 11.21 7.75272 11.6061 8.07371 11.9271C8.3947 12.2481 8.79081 12.4838 9.22604 12.6128C9.66127 12.7418 10.1218 12.76 10.5659 12.6658L11.7358 13.8357C11.1905 14.083 10.5986 14.2104 9.99989 14.2095ZM19.7698 9.25134C17.4272 5.7822 13.7136 3.75095 9.99989 3.77634C8.79697 3.77198 7.60207 3.97223 6.46629 4.36853L8.26317 6.1654C9.04289 5.81254 9.91163 5.70569 10.7536 5.8591C11.5956 6.0125 12.3708 6.41887 12.976 7.02404C13.5812 7.62922 13.9876 8.40445 14.141 9.24644C14.2944 10.0884 14.1875 10.9572 13.8347 11.7369L16.3245 14.2267C17.6829 13.2967 18.8521 12.1169 19.7698 10.7502C19.9196 10.5289 19.9996 10.2679 19.9996 10.0008C19.9996 9.73359 19.9196 9.47256 19.7698 9.25134Z" fill="#0037FF"/>
<path d="M9.99985 7.27734C9.80963 7.27737 9.61993 7.29727 9.43384 7.33672L12.6647 10.5672C12.7489 10.1703 12.7435 9.75956 12.6487 9.36503C12.5538 8.97051 12.3721 8.60215 12.1167 8.28685C11.8613 7.97156 11.5387 7.7173 11.1725 7.54264C10.8062 7.36798 10.4056 7.27734 9.99985 7.27734Z" fill="#0037FF"/>
</svg>
