<svg width="20" height="21" viewBox="0 0 20 21" fill="none" xmlns="http://www.w3.org/2000/svg">
<path d="M12.9592 11.3301L11.2841 13.0108C10.6049 13.6924 9.40973 13.7071 8.71578 13.0108L7.04066 11.3301L1.02441 17.3659C1.24836 17.4694 1.49527 17.5312 1.75777 17.5312H18.2421C18.5046 17.5312 18.7515 17.4695 18.9754 17.3659L12.9592 11.3301Z" fill="#0038C7"/>
<path d="M18.2422 3.46875H1.75781C1.49531 3.46875 1.2484 3.53055 1.02453 3.6341L7.45332 10.0842C7.45375 10.0846 7.45426 10.0847 7.45469 10.0852C7.45495 10.0854 7.45513 10.0858 7.4552 10.0862L9.54555 12.1834C9.76758 12.4055 10.2325 12.4055 10.4545 12.1834L12.5445 10.0865C12.5445 10.0865 12.545 10.0856 12.5454 10.0852C12.5454 10.0852 12.5463 10.0846 12.5468 10.0842L18.9754 3.63406C18.7515 3.53047 18.5047 3.46875 18.2422 3.46875ZM0.186953 4.45359C0.0710937 4.68789 0 4.94797 0 5.22656V15.7734C0 16.052 0.0710156 16.3121 0.186914 16.5464L6.21359 10.5002L0.186953 4.45359ZM19.813 4.45352L13.7864 10.5002L19.813 16.5465C19.9289 16.3122 20 16.0521 20 15.7734V5.22656C20 4.94789 19.9289 4.68781 19.813 4.45352Z" fill="#0038C7"/>
</svg>
