<svg width="200" height="200" viewBox="0 0 200 200" fill="none" xmlns="http://www.w3.org/2000/svg">
<rect width="200" height="200" rx="100" fill="#DAE4FF"/>
<path d="M68.3164 95.4443C70.5256 95.4443 72.3164 93.6535 72.3164 91.4443C72.3164 89.2352 70.5256 87.4443 68.3164 87.4443C66.1073 87.4443 64.3164 89.2352 64.3164 91.4443C64.3164 93.6535 66.1073 95.4443 68.3164 95.4443Z" fill="#375AD9"/>
<path d="M44 84.824C42.9391 84.824 41.9217 84.4026 41.1716 83.6524C40.4214 82.9023 40 81.8849 40 80.824V64C40 57.6348 42.5286 51.5303 47.0295 47.0294C51.5303 42.5286 57.6348 40 64 40H79.7641C80.8249 40 81.8424 40.4214 82.5925 41.1716C83.3427 41.9217 83.7641 42.9391 83.7641 44C83.7641 45.0609 83.3427 46.0783 82.5925 46.8284C81.8424 47.5786 80.8249 48 79.7641 48H64C59.7566 48 55.6869 49.6857 52.6863 52.6863C49.6857 55.6869 48 59.7565 48 64V80.824C48 81.8849 47.5786 82.9023 46.8284 83.6524C46.0783 84.4026 45.0609 84.824 44 84.824Z" fill="#F37F0D"/>
<path d="M79.768 160H64.004C57.6387 160 51.5342 157.471 47.0334 152.971C42.5325 148.47 40.0039 142.365 40.0039 136V119.2C40.0039 118.139 40.4253 117.122 41.1755 116.372C41.9256 115.621 42.943 115.2 44.0039 115.2C45.0648 115.2 46.0822 115.621 46.8323 116.372C47.5825 117.122 48.0039 118.139 48.0039 119.2V136C48.0039 140.243 49.6896 144.313 52.6902 147.314C55.6908 150.314 59.7605 152 64.004 152H79.768C80.8289 152 81.8463 152.421 82.5964 153.172C83.3466 153.922 83.768 154.939 83.768 156C83.768 157.061 83.3466 158.078 82.5964 158.828C81.8463 159.579 80.8289 160 79.768 160ZM136 160H120.264C119.203 160 118.186 159.579 117.436 158.828C116.685 158.078 116.264 157.061 116.264 156C116.264 154.939 116.685 153.922 117.436 153.172C118.186 152.421 119.203 152 120.264 152H136C140.244 152 144.313 150.314 147.314 147.314C150.314 144.313 152 140.243 152 136V120.2C152 119.139 152.422 118.122 153.172 117.372C153.922 116.621 154.939 116.2 156 116.2C157.061 116.2 158.078 116.621 158.829 117.372C159.579 118.122 160 119.139 160 120.2V136C160 142.365 157.472 148.47 152.971 152.971C148.47 157.471 142.365 160 136 160ZM156 83.7C154.939 83.7 153.922 83.2786 153.172 82.5284C152.422 81.7783 152 80.7609 152 79.7V64C152 59.7565 150.314 55.6869 147.314 52.6863C144.313 49.6857 140.244 48 136 48H120.392C119.331 48 118.314 47.5786 117.564 46.8284C116.814 46.0783 116.392 45.0609 116.392 44C116.392 42.9391 116.814 41.9217 117.564 41.1716C118.314 40.4214 119.331 40 120.392 40H136C142.365 40 148.47 42.5286 152.971 47.0294C157.472 51.5303 160 57.6348 160 64V79.7C160 80.7609 159.579 81.7783 158.829 82.5284C158.078 83.2786 157.061 83.7 156 83.7ZM132 134.068C130.939 134.068 129.922 133.647 129.172 132.896C128.422 132.146 128 131.129 128 130.068V113.936C128 112.875 127.579 111.858 126.829 111.108C126.078 110.357 125.061 109.936 124 109.936H116C114.939 109.936 113.922 110.357 113.172 111.108C112.421 111.858 112 112.875 112 113.936V130.068C112 131.129 111.579 132.146 110.828 132.896C110.078 133.647 109.061 134.068 108 134.068C106.939 134.068 105.922 133.647 105.172 132.896C104.421 132.146 104 131.129 104 130.068V113.936C104 110.753 105.264 107.701 107.515 105.451C109.765 103.2 112.817 101.936 116 101.936H124C127.183 101.936 130.235 103.2 132.485 105.451C134.736 107.701 136 110.753 136 113.936V130.068C136 131.129 135.579 132.146 134.829 132.896C134.078 133.647 133.061 134.068 132 134.068Z" fill="#375AD9"/>
<path d="M67.8838 64.2646H84.0158C87.1984 64.2646 90.2507 65.5289 92.5011 67.7794C94.7516 70.0298 96.0159 73.0821 96.0159 76.2646V92.5646C96.0159 93.6255 95.5944 94.6429 94.8443 95.3931C94.0941 96.1432 93.0767 96.5646 92.0158 96.5646C90.955 96.5646 89.9376 96.1432 89.1874 95.3931C88.4373 94.6429 88.0158 93.6255 88.0158 92.5646V76.2646C88.0158 75.2038 87.5944 74.1864 86.8443 73.4362C86.0941 72.6861 85.0767 72.2646 84.0158 72.2646H67.8838C66.8229 72.2646 65.8055 71.8432 65.0554 71.0931C64.3052 70.3429 63.8838 69.3255 63.8838 68.2646C63.8838 67.2038 64.3052 66.1864 65.0554 65.4362C65.8055 64.6861 66.8229 64.2646 67.8838 64.2646Z" fill="#F37F0D"/>
<path d="M84.0118 136H76.0117C69.3957 136 64.0117 130.616 64.0117 124V116C64.0117 109.384 69.3957 104 76.0117 104H84.0118C90.6278 104 96.0118 109.384 96.0118 116V124C96.0118 130.616 90.6278 136 84.0118 136ZM76.0117 112C74.9509 112 73.9335 112.421 73.1833 113.172C72.4332 113.922 72.0117 114.939 72.0117 116V124C72.0117 125.061 72.4332 126.078 73.1833 126.828C73.9335 127.579 74.9509 128 76.0117 128H84.0118C85.0726 128 86.09 127.579 86.8402 126.828C87.5903 126.078 88.0118 125.061 88.0118 124V116C88.0118 114.939 87.5903 113.922 86.8402 113.172C86.09 112.421 85.0726 112 84.0118 112H76.0117Z" fill="#375AD9"/>
<path d="M120.004 96.2646C111.18 96.2646 104.004 89.0886 104.004 80.2646C104.004 71.4406 111.18 64.2646 120.004 64.2646C128.828 64.2646 136.004 71.4406 136.004 80.2646C136.004 89.0886 128.828 96.2646 120.004 96.2646ZM120.004 72.2646C115.592 72.2646 112.004 75.8526 112.004 80.2646C112.004 84.6766 115.592 88.2646 120.004 88.2646C124.416 88.2646 128.004 84.6766 128.004 80.2646C128.004 75.8526 124.416 72.2646 120.004 72.2646Z" fill="#F37F0D"/>
</svg>
