<svg width="240" height="240" viewBox="0 0 240 240" fill="none" xmlns="http://www.w3.org/2000/svg">
<circle cx="120" cy="120" r="120" fill="#D7FFE4"/>
<circle cx="120" cy="119.998" r="58.8396" fill="#00B43D"/>
<path d="M110.173 140.341C109.383 140.341 108.6 140.185 107.87 139.882C107.14 139.579 106.476 139.134 105.918 138.574L93.051 125.686C91.6666 124.299 91.6666 122.049 93.051 120.662C94.4359 119.275 96.6809 119.275 98.0658 120.662L110.173 132.793L142.205 100.699C143.59 99.3114 145.835 99.3114 147.22 100.699C148.605 102.086 148.605 104.336 147.22 105.723L114.429 138.574C113.871 139.134 113.207 139.579 112.477 139.882C111.747 140.185 110.964 140.341 110.173 140.341Z" fill="#EEFFF2"/>
</svg>
