<svg width="512" height="512" viewBox="0 0 512 512" fill="none" xmlns="http://www.w3.org/2000/svg">
<path d="M128.001 175.744C125.172 175.744 122.459 176.867 120.458 178.868C118.458 180.868 117.334 183.581 117.334 186.41V209.578C117.334 212.407 118.458 215.12 120.458 217.121C122.459 219.121 125.172 220.245 128.001 220.245C130.83 220.245 133.543 219.121 135.543 217.121C137.544 215.12 138.667 212.407 138.667 209.578V186.41C138.667 183.581 137.544 180.868 135.543 178.868C133.543 176.867 130.83 175.744 128.001 175.744ZM128.001 233.685C125.172 233.685 122.459 234.809 120.458 236.809C118.458 238.81 117.334 241.523 117.334 244.352V267.52C117.334 270.349 118.458 273.062 120.458 275.062C122.459 277.063 125.172 278.186 128.001 278.186C130.83 278.186 133.543 277.063 135.543 275.062C137.544 273.062 138.667 270.349 138.667 267.52V244.352C138.667 241.523 137.544 238.81 135.543 236.809C133.543 234.809 130.83 233.685 128.001 233.685ZM128.001 291.626C125.172 291.626 122.459 292.75 120.458 294.751C118.458 296.751 117.334 299.464 117.334 302.293V325.461C117.334 328.29 118.458 331.003 120.458 333.003C122.459 335.004 125.172 336.128 128.001 336.128C130.83 336.128 133.543 335.004 135.543 333.003C137.544 331.003 138.667 328.29 138.667 325.461V302.293C138.667 299.464 137.544 296.751 135.543 294.751C133.543 292.75 130.83 291.626 128.001 291.626Z" fill="#F37F0D"/>
<path d="M94.582 53.3545C88.3136 53.8712 82.3337 56.2123 77.3806 60.0887C72.4274 63.9652 68.7179 69.2073 66.71 75.1678L52.502 118.058C35.1793 119.509 21.334 134.058 21.334 151.722V194.165C21.3356 196.42 22.0519 198.617 23.38 200.44C24.7081 202.262 26.5797 203.617 28.726 204.309C42.038 208.608 53.334 225.323 53.334 245.792C53.334 266.272 42.038 282.997 28.726 287.285C26.578 287.978 24.7052 289.334 23.3769 291.159C22.0486 292.984 21.3333 295.183 21.334 297.44V361.184C21.3761 370.173 24.9655 378.781 31.3217 385.138C37.6778 391.494 46.2865 395.083 55.2753 395.125H223.67L404.769 456.96C421.494 462.667 439.787 453.323 445.302 436.661L459.126 394.869C476.619 393.611 490.667 378.976 490.667 361.184V297.419C490.666 295.163 489.949 292.967 488.621 291.144C487.293 289.322 485.422 287.967 483.275 287.275C469.963 282.976 458.667 266.261 458.667 245.781C458.667 225.312 469.963 208.587 483.275 204.288C485.422 203.596 487.293 202.241 488.621 200.418C489.949 198.596 490.666 196.399 490.667 194.144V151.722C490.622 142.736 487.032 134.13 480.676 127.776C474.32 121.422 465.713 117.834 456.726 117.792H288.374L107.307 54.8692C103.115 53.4078 98.5393 53.5892 94.5927 53.3545H94.582ZM96.15 74.5172C97.5367 74.4212 98.9766 74.6025 100.417 75.0825L223.339 117.792H75.0727L86.9553 81.8452C87.5671 79.8372 88.7733 78.0619 90.4149 76.7536C92.0564 75.4453 94.0561 74.6655 96.15 74.5172ZM55.2753 139.125H117.334V149.269C117.334 152.098 118.458 154.811 120.458 156.812C122.459 158.812 125.172 159.936 128.001 159.936C130.83 159.936 133.543 158.812 135.543 156.812C137.544 154.811 138.667 152.098 138.667 149.269V139.125H456.726C463.894 139.125 469.334 144.565 469.334 151.722V188.042C449.633 198.421 437.334 220.789 437.334 245.792C437.334 270.784 449.643 293.152 469.334 303.52V361.184C469.334 368.352 463.894 373.792 456.726 373.792H138.646C138.699 370.112 138.667 366.325 138.667 362.603C138.667 359.774 137.544 357.06 135.543 355.06C133.543 353.06 130.83 351.936 128.001 351.936C125.172 351.936 122.459 353.06 120.458 355.06C118.458 357.06 117.334 359.774 117.334 362.603C117.313 366.304 117.334 370.133 117.355 373.792H55.2753C48.0967 373.792 42.6673 368.352 42.6673 361.184V303.541C62.3687 293.163 74.6673 270.795 74.6673 245.792C74.6673 220.789 62.358 198.432 42.6673 188.064V151.722C42.6673 144.554 48.1073 139.125 55.2753 139.125ZM289.686 395.125H436.566L425.046 429.952C423.126 435.744 417.313 438.699 411.67 436.779L289.686 395.125Z" fill="#F37F0D"/>
<path d="M349.462 272.64C368.449 272.64 384.065 288.245 384.065 307.232C384.065 326.218 368.449 341.856 349.462 341.856C330.476 341.856 314.838 326.218 314.838 307.232C314.838 288.245 330.476 272.64 349.462 272.64ZM349.462 293.973C341.996 293.973 336.172 299.776 336.172 307.232C336.172 314.688 342.006 320.522 349.462 320.522C356.918 320.522 362.732 314.698 362.732 307.232C362.732 299.765 356.918 293.973 349.462 293.973ZM247.894 171.061C257.058 171.106 265.833 174.766 272.313 181.245C278.792 187.725 282.452 196.5 282.497 205.664C282.497 224.65 266.881 240.266 247.884 240.266C228.886 240.266 213.26 224.65 213.26 205.664C213.305 196.497 216.968 187.718 223.452 181.238C229.936 174.758 238.727 171.1 247.894 171.061ZM247.894 192.394C240.428 192.394 234.593 198.208 234.593 205.664C234.593 213.13 240.428 218.933 247.884 218.933C255.35 218.933 261.164 213.12 261.164 205.664C261.164 198.197 255.361 192.394 247.894 192.394ZM341.921 198.122L240.332 299.712C238.389 301.723 237.314 304.418 237.338 307.215C237.362 310.011 238.484 312.687 240.462 314.664C242.439 316.642 245.115 317.764 247.911 317.788C250.708 317.813 253.403 316.737 255.414 314.794L357.004 213.205C359.003 211.205 360.127 208.492 360.127 205.664C360.127 202.835 359.003 200.123 357.004 198.122C352.641 194.25 346.017 193.845 341.921 198.122Z" fill="#F37F0D"/>
</svg>
