<svg width="20" height="21" viewBox="0 0 20 21" fill="none" xmlns="http://www.w3.org/2000/svg">
<path d="M9.2196 4.9442L0.31951 13.8445C0.113495 14.0503 0 14.3251 0 14.6181C0 14.9111 0.113495 15.1859 0.31951 15.3918L0.974789 16.0472C1.40178 16.4737 2.09576 16.4737 2.52209 16.0472L9.99585 8.57344L17.4779 16.0555C17.6839 16.2613 17.9586 16.375 18.2514 16.375C18.5446 16.375 18.8192 16.2613 19.0254 16.0555L19.6805 15.4C19.8865 15.194 20 14.9194 20 14.6264C20 14.3334 19.8865 14.0586 19.6805 13.8527L10.7723 4.9442C10.5656 4.73786 10.2897 4.62453 9.99634 4.62518C9.70187 4.62453 9.4261 4.73786 9.2196 4.9442Z" fill="black"/>
</svg>
