<svg width="13" height="11" viewBox="0 0 13 11" fill="none" xmlns="http://www.w3.org/2000/svg">
<path d="M0.92857 6.41264L10.2143 6.41264L7.15929 9.43064C7.07225 9.51592 7.00317 9.61738 6.95603 9.72916C6.90889 9.84095 6.88462 9.96085 6.88462 10.0819C6.88462 10.203 6.90889 10.3229 6.95603 10.4347C7.00317 10.5465 7.07225 10.648 7.15929 10.7332C7.33326 10.9041 7.56861 11 7.81393 11C8.05924 11 8.29459 10.9041 8.46857 10.7332L12.4521 6.78874C12.8009 6.44625 12.9979 5.9811 13 5.49531C12.9955 5.0127 12.7986 4.55128 12.4521 4.21105L8.46857 0.266539C8.38199 0.181612 8.27933 0.114362 8.16644 0.0686299C8.05355 0.0228983 7.93265 -0.000420928 7.81065 4.41074e-06C7.68864 0.000430703 7.56791 0.024594 7.45535 0.0711132C7.34279 0.117632 7.24061 0.185597 7.15464 0.271127C7.06867 0.356658 7.0006 0.458079 6.95431 0.569599C6.90801 0.681119 6.88441 0.800555 6.88484 0.921087C6.88527 1.04162 6.90973 1.16089 6.95682 1.27208C7.00391 1.38327 7.07271 1.48422 7.15929 1.56915L10.2143 4.57798L0.92857 4.57798C0.682298 4.57798 0.446111 4.67463 0.27197 4.84666C0.0978292 5.01869 -1.54972e-06 5.25202 -1.54972e-06 5.49531C-1.54972e-06 5.7386 0.0978292 5.97192 0.27197 6.14396C0.446111 6.31599 0.682298 6.41264 0.92857 6.41264Z" fill="white"/>
</svg>
