<svg width="26" height="25" viewBox="0 0 26 25" fill="none" xmlns="http://www.w3.org/2000/svg">
<path d="M12.5864 0C5.7207 0 0.0375977 5.58545 0.0375977 12.4512C0.0375977 19.3169 5.7207 25 12.5864 25C19.4521 25 25.0376 19.3169 25.0376 12.4512C25.0376 5.58545 19.4521 0 12.5864 0ZM19.1782 13.916H14.0513V19.1406C14.0513 19.9482 13.3936 20.6055 12.5864 20.6055C11.7788 20.6055 11.1216 19.9482 11.1216 19.1406V13.916H5.89697C5.08936 13.916 4.43213 13.2588 4.43213 12.4512C4.43213 11.6436 5.08936 10.9863 5.89697 10.9863H11.1216V5.85938C11.1216 5.05176 11.7788 4.39453 12.5864 4.39453C13.3936 4.39453 14.0513 5.05176 14.0513 5.85938V10.9863H19.1782C19.9854 10.9863 20.6431 11.6436 20.6431 12.4512C20.6431 13.2588 19.9854 13.916 19.1782 13.916Z" fill="#375AD9"/>
</svg>
