<svg width="20" height="20" viewBox="0 0 20 20" fill="none" xmlns="http://www.w3.org/2000/svg">
<g clip-path="url(#clip0_218_1599)">
<path d="M4.6875 9.9999C4.6875 9.009 4.96051 8.08076 5.4348 7.28596V3.91455H2.0634C0.725313 5.65236 0 7.77029 0 9.9999C0 12.2295 0.725313 14.3474 2.0634 16.0853H5.4348V12.7138C4.96051 11.919 4.6875 10.9908 4.6875 9.9999Z" fill="#FBBD00"/>
<path d="M10 15.3126L7.65625 17.6563L10 20.0001C12.2296 20.0001 14.3475 19.2747 16.0854 17.9367V14.5688H12.7175C11.9158 15.0449 10.9836 15.3126 10 15.3126Z" fill="#0F9D58"/>
<path d="M5.43488 12.7139L2.06348 16.0853C2.33046 16.4322 2.61957 16.7614 2.92902 17.071C4.81777 18.9597 7.32898 19.9999 10.0001 19.9999V15.3124C8.06164 15.3124 6.3627 14.2687 5.43488 12.7139Z" fill="#31AA52"/>
<path d="M20 10C20.0001 9.39247 19.9453 8.78614 19.8363 8.18844L19.7483 7.70801H10V12.3955H14.7442C14.2903 13.2988 13.5869 14.053 12.7175 14.5689L16.0853 17.9367C16.4322 17.6697 16.7615 17.3806 17.0711 17.0711C18.9598 15.1823 20 12.6711 20 10Z" fill="#3C79E6"/>
<path d="M13.7565 6.24348L14.1708 6.65777L17.4854 3.34324L17.0711 2.92895C15.1823 1.0402 12.6711 0 10 0L7.65625 2.34375L10 4.6875C11.419 4.6875 12.7531 5.24008 13.7565 6.24348Z" fill="#CF2D48"/>
<path d="M10.0001 4.6875V0C7.32902 0 4.81781 1.0402 2.92902 2.92891C2.61955 3.23848 2.33044 3.56775 2.06348 3.91465L5.43488 7.28605C6.36273 5.73125 8.06168 4.6875 10.0001 4.6875Z" fill="#EB4132"/>
</g>
<defs>
<clipPath id="clip0_218_1599">
<rect width="20" height="20" fill="white"/>
</clipPath>
</defs>
</svg>
