<svg width="15" height="15" viewBox="0 0 15 15" fill="none" xmlns="http://www.w3.org/2000/svg">
<g clip-path="url(#clip0_333_2254)">
<path d="M7.5 0C3.3645 0 0 3.36455 0 7.50004C0 11.6355 3.3645 15 7.5 15C11.6355 15 15 11.6355 15 7.50004C15 3.36455 11.6355 0 7.5 0ZM7.5 13.6364C4.11636 13.6364 1.36364 10.8836 1.36364 7.50004C1.36364 4.11645 4.11636 1.36364 7.5 1.36364C10.8836 1.36364 13.6364 4.11645 13.6364 7.50004C13.6364 10.8836 10.8836 13.6364 7.5 13.6364Z" fill="#666666"/>
<path d="M7.50003 3.18164C6.99885 3.18164 6.59113 3.58964 6.59113 4.09114C6.59113 4.59219 6.99885 4.99982 7.50003 4.99982C8.00122 4.99982 8.40894 4.59219 8.40894 4.09114C8.40894 3.58964 8.00122 3.18164 7.50003 3.18164ZM7.50013 6.36346C7.12358 6.36346 6.81831 6.66873 6.81831 7.04528V11.1362C6.81831 11.5127 7.12358 11.818 7.50013 11.818C7.87667 11.818 8.18194 11.5127 8.18194 11.1362V7.04528C8.18194 6.66873 7.87667 6.36346 7.50013 6.36346Z" fill="#666666"/>
</g>
<defs>
<clipPath id="clip0_333_2254">
<rect width="15" height="15" fill="white"/>
</clipPath>
</defs>
</svg>
